<svg width="230" height="40" viewBox="0 0 230 40" fill="none" xmlns="http://www.w3.org/2000/svg">
<rect width="230" height="40" rx="12" fill="url(#paint0_linear_46_19)"/>
<path d="M21 32C27.6274 32 33 26.6274 33 20C33 13.3726 27.6274 8 21 8C14.3726 8 9 13.3726 9 20C9 26.6274 14.3726 32 21 32Z" fill="url(#paint1_linear_46_19)" stroke="white" stroke-width="2.5"/>
<path d="M21 26V26.6V27.2" fill="url(#paint2_linear_46_19)"/>
<path d="M21 26V26.6V27.2" stroke="white" stroke-width="2.5" stroke-linecap="round"/>
<path d="M21 12.8V13.4V14" fill="url(#paint3_linear_46_19)"/>
<path d="M21 12.8V13.4V14" stroke="white" stroke-width="2.5" stroke-linecap="round"/>
<path d="M24.6 17C24.6 15.3431 22.9883 14 21 14C19.0117 14 17.4 15.3431 17.4 17C17.4 18.6568 19.0117 20 21 20C22.9883 20 24.6 21.3431 24.6 23C24.6 24.6568 22.9883 26 21 26C19.0117 26 17.4 24.6568 17.4 23" fill="url(#paint4_linear_46_19)"/>
<path d="M24.6 17C24.6 15.3431 22.9883 14 21 14C19.0117 14 17.4 15.3431 17.4 17C17.4 18.6568 19.0117 20 21 20C22.9883 20 24.6 21.3431 24.6 23C24.6 24.6568 22.9883 26 21 26C19.0117 26 17.4 24.6568 17.4 23" stroke="white" stroke-width="2.5" stroke-linecap="round"/>
<defs>
<linearGradient id="paint0_linear_46_19" x1="115" y1="0" x2="115" y2="40" gradientUnits="userSpaceOnUse">
<stop stop-color="#784AF4" stop-opacity="0.6"/>
<stop offset="1" stop-color="#784AF4"/>
</linearGradient>
<linearGradient id="paint1_linear_46_19" x1="21" y1="8" x2="21" y2="32" gradientUnits="userSpaceOnUse">
<stop stop-color="#784AF4" stop-opacity="0.6"/>
<stop offset="1" stop-color="#784AF4"/>
</linearGradient>
<linearGradient id="paint2_linear_46_19" x1="21.5" y1="26" x2="21.5" y2="27.2" gradientUnits="userSpaceOnUse">
<stop stop-color="#784AF4" stop-opacity="0.6"/>
<stop offset="1" stop-color="#784AF4"/>
</linearGradient>
<linearGradient id="paint3_linear_46_19" x1="21.5" y1="12.8" x2="21.5" y2="14" gradientUnits="userSpaceOnUse">
<stop stop-color="#784AF4" stop-opacity="0.6"/>
<stop offset="1" stop-color="#784AF4"/>
</linearGradient>
<linearGradient id="paint4_linear_46_19" x1="21" y1="14" x2="21" y2="26" gradientUnits="userSpaceOnUse">
<stop stop-color="#784AF4" stop-opacity="0.6"/>
<stop offset="1" stop-color="#784AF4"/>
</linearGradient>
</defs>
</svg>
